<?xml version="1.0" encoding="iso-8859-1"?>
<!-- Generator: Adobe Illustrator 23.0.3, SVG Export Plug-In . SVG Version: 6.00 Build 0)  -->
<svg version="1.1" id="Layer_1" xmlns="http://www.w3.org/2000/svg" xmlns:xlink="http://www.w3.org/1999/xlink" x="0px" y="0px"
	 viewBox="0 0 723 109" style="enable-background:new 0 0 723 109;" xml:space="preserve">
<g>
	<path style="fill:#FFFFFF;" d="M517.885,19.001c1.084-3.241,3.405-8.721,13.003-8.721c8.978,0,11.764,5.231,13.003,8.721
		l21.671,65.906c0.309,1.122,1.55,2.119,2.632,2.119c1.548,0,2.168-1.744,2.475-2.617l23.066-73.132h14.55l-25.851,78.488
		c-2.166,6.479-5.571,9.718-13.932,9.718c-9.907,0-12.539-4.732-14.085-9.592l-21.209-64.038c-0.309-1.12-0.926-2.368-2.321-2.368
		c-1.393,0-2.012,1.248-2.321,2.368l-21.364,64.038c-1.546,4.86-4.023,9.592-13.93,9.592c-8.359,0-11.766-3.239-13.932-9.718
		L453.49,11.277h14.552l23.062,73.132c0.309,0.873,0.62,2.617,2.475,2.617c1.086,0,2.324-0.997,2.634-2.119L517.885,19.001z"/>
	<path style="fill:#FFFFFF;" d="M712,88.521c0,7.35-5.265,10.962-13.003,10.962c-5.882,0-10.063-1.493-14.243-6.851l-51.081-65.782
		c-1.082-1.493-2.012-2.117-3.096-2.117c-0.62,0-2.168,0.497-2.168,2.492v71.262h-14.087V20.62c0-7.972,7.277-10.34,13.314-10.34
		c7.895,0,11.3,2.988,13.932,6.355l51.547,66.279c0.771,0.997,1.391,2.117,2.941,2.117c1.857,0,1.857-1.368,1.857-2.117V11.277H712
		V88.521z"/>
	<path style="fill:#FFFFFF;" d="M105.885,98.985c-9.443,0-15.171-3.612-15.171-12.333V24.107c0-9.341,5.727-12.333,15.171-12.333
		h67.026v9.469h-60.679c-6.037,0-7.122,1.497-7.122,5.856v22.549h66.253v9.469H105.11v24.419c0,4.36,1.086,5.98,7.122,5.98h61.299
		l13.341,9.469H105.885z"/>
	<path style="fill:#FFFFFF;" d="M181.457,89.516h65.762c8.203,0,11.455-4.609,11.455-12.21c0-4.609-1.239-9.22-12.073-12.084
		L203.722,53.76c-13.003-3.488-18.577-9.469-18.577-21.554c0-12.457,7.432-20.431,24.614-20.431h58.667v9.469h-56.035
		c-8.205,0-12.23,3.114-12.23,11.213c0,4.734,0.62,9.343,10.216,11.96l40.867,10.964c14.396,3.859,22.444,8.223,22.444,21.926
		c0,11.837-5.726,21.678-22.444,21.678h-55.477L181.457,89.516z"/>
	<path style="fill:#FFFFFF;" d="M439.612,65.846l-20.01-39.992c-0.929-1.746-2.013-4.238-3.87-4.238
		c-1.857,0-2.786,2.492-3.716,4.238l-20.743,39.992h42.995l5.08,9.469H386.94l-12.073,23.67h-15.172l41.178-78.614
		c3.248-6.104,6.657-9.592,14.86-9.592c7.895,0,11.919,3.612,15.014,9.592l41.023,78.614h-15.172l-12.228-23.67"/>
	<path style="fill:#FFFFFF;" d="M38.716,66.593v-0.624h17.491c18.73,0,24.612-11.087,24.612-27.782
		c0-16.196-6.346-26.413-26.314-26.413H8v9.636c0.777-0.104,1.608-0.167,2.543-0.167h38.544c14.55,0,16.718,6.104,16.718,16.944
		c0,10.589-1.239,18.314-14.396,18.314H24.938c-4.178,0-6.5,1.744-6.5,4.36v1.995c0,2.119,2.012,3.987,4.025,5.482l41.485,30.647
		h19.194L38.716,66.593z"/>
	<path style="fill:#FFFFFF;" d="M345.634,11.774h-49.688c-8.456,0-13.561,2.288-14.41,9.465h27.395v0.004h31.596
		c15.014,0,17.801,5.98,17.801,17.193c0,11.588-2.475,17.817-17.801,17.817h-44.735v-0.055h-14.396v42.787h14.396V65.721h49.842
		c21.829,0,27.708-10.093,27.708-27.286C373.342,21.99,367.463,11.774,345.634,11.774"/>
</g>
<g>
</g>
<g>
</g>
<g>
</g>
<g>
</g>
<g>
</g>
<g>
</g>
</svg>
